<?xml version="1.0" encoding="UTF-8" standalone="no"?>
<!-- Created with Inkscape (http://www.inkscape.org/) -->

<svg
   width="508mm"
   height="119.98854mm"
   viewBox="0 0 507.99999 119.98854"
   version="1.1"
   id="svg5"
   xmlns="http://www.w3.org/2000/svg"
   xmlns:svg="http://www.w3.org/2000/svg">
  <defs
     id="defs2" />
  <g
     id="layer1"
     transform="translate(-198.51592,-82.353623)">
    <g
       id="g1420"
       transform="matrix(0.26458333,0,0,0.26458333,-126.84657,36.105637)">
      <path
         class="st0"
         d="m 1109.5,617.2 h -1.1 c -32,0 -58,-26 -58,-58 v -35.4 c 0,-32 26,-58 58,-58 h 1.1 c 32,0 58,26 58,58 v 35.4 c 0,32 -26,58 -58,58 z"
         id="path1333" />
      <g
         id="g1365">
	<g
   id="g1347">
		<g
   id="g1337">
			<text
   transform="translate(1069.5161,572.2402)"
   class="st1 st2 st3"
   id="text1335">IMPULSAR</text>

		</g>

		<g
   id="g1345">
			<path
   class="st1"
   d="m 1108.5,500 c -15.6,0 -28.3,12.7 -28.3,28.3 0,15.6 12.7,28.3 28.3,28.3 15.6,0 28.3,-12.7 28.3,-28.3 0,-15.6 -12.7,-28.3 -28.3,-28.3 z m 0,51.4 c -12.8,0 -23.1,-10.4 -23.1,-23.1 0,-12.7 10.4,-23.1 23.1,-23.1 12.8,0 23.1,10.4 23.1,23.1 0,12.7 -10.3,23.1 -23.1,23.1 z m 0,0"
   id="path1339" />

			<path
   class="st1"
   d="m 1110.3,511.1 c -1,-1 -2.6,-1 -3.6,0 l -9.8,9.8 c -1,1 -1,2.6 0,3.6 1,1 2.6,1 3.6,0 l 5.4,-5.4 v 14.4 c 0,1.4 1.2,2.6 2.6,2.6 1.4,0 2.6,-1.2 2.6,-2.6 v -14.4 l 5.4,5.4 c 0.5,0.5 1.2,0.8 1.8,0.8 0.7,0 1.3,-0.3 1.8,-0.8 1,-1 1,-2.6 0,-3.6 z m 0,0"
   id="path1341" />

			<path
   class="st1"
   d="m 1113.7,541.2 h -10.3 c -1.4,0 -2.6,1.2 -2.6,2.6 0,1.4 1.2,2.6 2.6,2.6 h 10.3 c 1.4,0 2.6,-1.2 2.6,-2.6 -0.1,-1.5 -1.2,-2.6 -2.6,-2.6 z m 0,0"
   id="path1343" />

		</g>

	<g
   id="g1977"
   transform="translate(1229.7165,176.49554)">
  <g
     id="g1815">
	
	
	
	
	
	
	
	
	<g
   id="g1777">
		
			
		
	</g>

	
	
	<g
   id="g1813">
		<g
   id="g1811">
			<g
   id="g1809">
				<g
   id="g1807">
					<path
   class="st3"
   d="m 50.5,270.1 h 40.6 c 3.7,0 6.1,3 5.4,6.7 l -8.1,40.6 c -0.7,3.7 -4.3,6.7 -8.1,6.7 H 39.7 c -3.7,0 -6.1,-3 -5.4,-6.7 l 8.1,-40.6 c 0.7,-3.7 4.3,-6.7 8.1,-6.7 z"
   id="path1803" />

					<path
   class="st3"
   d="M 39.1,324.2 H 81 c 3.4,0 6.6,-2.7 7.3,-6.1 l 8.3,-41.9 c 0.7,-3.4 -1.5,-6.1 -4.9,-6.1 H 49.8 c -3.4,0 -6.6,2.7 -7.3,6.1 l -8.3,41.9 c -0.7,3.4 1.5,6.1 4.9,6.1 z m -4.6,-6.1 8.3,-41.9 c 0.3,-1.6 1.2,-3 2.5,-4.2 1.3,-1.1 2.9,-1.7 4.5,-1.7 h 41.9 c 1.6,0 2.9,0.6 3.8,1.7 0.9,1.1 1.2,2.6 0.9,4.2 l -8.3,41.9 c -0.3,1.6 -1.2,3 -2.5,4.2 -1.3,1.1 -2.9,1.7 -4.5,1.7 H 39.2 c -1.6,0 -2.9,-0.6 -3.8,-1.7 -0.9,-1.1 -1.3,-2.6 -0.9,-4.2 z"
   id="path1805" />

				</g>

			</g>

		</g>

	</g>

</g>
  <g
     id="g3679">
    <rect
       x="0"
       y="-1.7"
       class="st0"
       width="1920"
       height="453.5"
       id="rect1581" />
    <g
       id="g1669">
	<g
   id="g1667">
		<g
   id="g1631">
			<rect
   x="1018.2"
   y="140.10001"
   class="st1"
   width="28"
   height="26.6"
   id="rect1583" />

			<rect
   x="990.20001"
   y="167.10001"
   class="st1"
   width="28"
   height="27.6"
   id="rect1585" />

			<rect
   x="962.79999"
   y="140.10001"
   class="st1"
   width="27.4"
   height="26.6"
   id="rect1587" />

			<rect
   x="962.79999"
   y="194.7"
   class="st1"
   width="27.4"
   height="26.799999"
   id="rect1589" />

			<rect
   x="1129.8"
   y="140.10001"
   class="st1"
   width="27.4"
   height="26.4"
   id="rect1591" />

			<rect
   x="1241.2"
   y="140.10001"
   class="st1"
   width="27.6"
   height="26.6"
   id="rect1593" />

			<rect
   x="1102.3"
   y="166.89999"
   class="st1"
   width="26.9"
   height="27.6"
   id="rect1595" />

			<rect
   x="1157.2"
   y="166.89999"
   class="st1"
   width="28"
   height="27.6"
   id="rect1597" />

			<rect
   x="1018.2"
   y="194.7"
   class="st1"
   width="28"
   height="26.799999"
   id="rect1599" />

			<rect
   x="1185.2"
   y="140.10001"
   class="st1"
   width="28"
   height="26.4"
   id="rect1601" />

			<rect
   x="1213.2"
   y="166.89999"
   class="st1"
   width="27.5"
   height="27.6"
   id="rect1603" />

			<path
   class="st1"
   d="m 962.2,194.7 v -27.6 h -27.4 v -27 h -257 c -7.7,0 -14.8,4 -18.7,10.6 l -29.7,50.4 c -5.3,9.1 1.3,20.4 12,20.4 h 293.5 v -26.8 z"
   id="path1605" />

			<rect
   x="1129.8"
   y="194.5"
   class="st1"
   width="27.4"
   height="27"
   id="rect1607" />

			<rect
   x="1185.2"
   y="194.5"
   class="st1"
   width="28"
   height="27"
   id="rect1609" />

			<polygon
   class="st1"
   points="1281.7,194.5 1292.5,166.9 1268.7,166.9 1268.7,194.5 "
   id="polygon1611" />

			<path
   class="st1"
   d="m 1241.2,194.7 v 26.8 h 16.8 c 3.9,0 7.6,-1.2 10.7,-3.2 v -23.5 h -27.5 z"
   id="path1613" />

			<polygon
   class="st1"
   points="1046.2,167.1 1046.2,194.7 1074.1,194.7 1074.1,221.5 1101.8,221.5 1101.8,194.5 1074.3,194.5 1074.3,166.5 1101.8,166.5 1101.8,140.1 1074.1,140.1 1074.1,167.1 "
   id="polygon1615" />

			<rect
   x="962.20001"
   y="166.7"
   class="st1"
   width="0.60000002"
   height="0.40000001"
   id="rect1617" />

			<rect
   x="1046.1"
   y="166.7"
   class="st1"
   width="0"
   height="0.40000001"
   id="rect1619" />

			<rect
   x="1129.2"
   y="166.5"
   class="st1"
   width="0.60000002"
   height="0.40000001"
   id="rect1621" />

			<rect
   x="1101.8"
   y="166.5"
   class="st1"
   width="0.5"
   height="0.40000001"
   id="rect1623" />

			<rect
   x="1240.7"
   y="194.5"
   class="st1"
   width="0.40000001"
   height="0.2"
   id="rect1625" />

			<rect
   x="1213.2"
   y="166.5"
   class="st1"
   width="0"
   height="0.40000001"
   id="rect1627" />

			<rect
   x="1240.7"
   y="166.7"
   class="st1"
   width="0.40000001"
   height="0.2"
   id="rect1629" />

		</g>

		<g
   id="g1641">
			<path
   class="st2"
   d="m 712.4,167.6 -8.9,38.4 h -14.6 l 8.8,-38.4 h -16 l 2.9,-12.5 h 46.6 l -2.9,12.5 z"
   id="path1633" />

			<path
   class="st2"
   d="m 746.4,174.9 h 23.5 l -2.6,11.2 h -23.5 l -1.8,7.6 h 25.9 l -2.8,12.3 h -40.6 l 11.8,-50.9 h 40.3 l -2.9,12.3 h -25.5 z"
   id="path1635" />

			<path
   class="st2"
   d="m 810.2,206 -1,-7.8 H 789 l -4.6,7.8 h -16.3 l 32.3,-50.9 h 16 l 8.7,50.9 z m -4.7,-35.3 -9.1,15.3 h 11.2 z"
   id="path1637" />

			<path
   class="st2"
   d="m 889.6,206 h -14.3 l 5.3,-23 -16.4,23 h -10 l -5.8,-22.8 -5.3,22.8 h -14.3 l 11.7,-50.9 h 14.2 l 8.3,28.6 21.5,-28.6 h 16.7 z"
   id="path1639" />

		</g>

		<g
   id="g1665">
			<g
   id="g1663">
				<g
   id="g1661">
					<g
   id="g1659">
						<path
   class="st1"
   d="m 699.4,237.9 c 6.6,5.2 10.2,12 10.5,20.6 l -22.6,4.1 c -0.5,-4 -2,-7.2 -4.5,-9.4 -2.5,-2.2 -5.9,-3.4 -10.1,-3.4 -6.2,0 -11.5,2.3 -16.1,6.8 -4.6,4.5 -6.9,10 -6.9,16.4 0,5 1.5,9.1 4.5,12.4 3,3.2 7,4.8 12,4.8 4.3,0 8,-1.2 11.3,-3.5 3.3,-2.4 5.8,-5.6 7.4,-9.7 l 21.1,4.7 c -2.8,8.8 -7.8,15.7 -14.9,20.7 -7.1,5 -15.8,7.5 -26.2,7.5 -11.6,0 -20.8,-3.2 -27.5,-9.7 -6.7,-6.5 -10,-14.9 -10,-25.3 0,-12.3 4.5,-22.9 13.5,-31.6 9,-8.8 20.1,-13.2 33.4,-13.2 10.1,0 18.4,2.6 25.1,7.8 z"
   id="path1643" />

						<path
   class="st1"
   d="m 789.1,241.7 c 7.2,7.8 10.1,17.2 8.7,28.3 -1.5,11.7 -6.4,21.3 -14.6,28.7 -8.2,7.4 -18.4,11.2 -30.6,11.2 -11.8,0.1 -21.3,-3.8 -28.4,-11.5 -7.2,-7.8 -10.1,-17.2 -8.6,-28.4 1.4,-11.2 6.5,-20.7 15.2,-28.4 8.7,-7.7 18.7,-11.6 30,-11.6 11.6,0 21.1,3.9 28.3,11.7 z m -20.7,42.8 c 4.1,-3.8 6.5,-8.6 7.2,-14.5 0.8,-5.7 -0.4,-10.5 -3.5,-14.4 -3.1,-3.9 -7.3,-5.8 -12.7,-5.8 -5.6,0 -10.5,1.9 -14.6,5.8 -4.1,3.8 -6.5,8.6 -7.3,14.4 -0.8,5.8 0.4,10.6 3.5,14.4 3.1,3.8 7.3,5.8 12.7,5.8 5.8,0 10.7,-1.9 14.7,-5.7 z"
   id="path1645" />

						<path
   class="st1"
   d="m 872.4,271 c -4.1,5 -9.5,8.6 -16.4,10.7 l 15.2,26.4 h -24.3 l -13.3,-24.4 h -8.1 l -5.6,24.4 h -22 l 17.6,-76.4 h 37.6 c 7.9,0 14.1,2 18.6,5.9 4.5,3.9 6.8,9.3 6.8,16 0,6.6 -2,12.4 -6.1,17.4 z m -29,-4.5 c 3.8,0 6.9,-0.9 9.3,-2.8 2.4,-1.9 3.6,-4.2 3.6,-7 0,-2.1 -0.7,-3.8 -2.2,-5 -1.5,-1.2 -3.6,-1.8 -6.2,-1.8 h -14.7 l -3.8,16.5 h 14 z"
   id="path1647" />

						<path
   class="st1"
   d="m 950.8,271 c -4.1,5 -9.5,8.6 -16.4,10.7 l 15.2,26.4 H 925.3 L 912,283.8 h -8.1 l -5.6,24.4 h -22 l 17.6,-76.4 h 37.6 c 7.9,0 14.1,2 18.6,5.9 4.5,3.9 6.8,9.3 6.8,16 0,6.5 -2,12.3 -6.1,17.3 z m -29,-4.5 c 3.8,0 6.9,-0.9 9.3,-2.8 2.4,-1.9 3.6,-4.2 3.6,-7 0,-2.1 -0.7,-3.8 -2.2,-5 -1.5,-1.2 -3.6,-1.8 -6.2,-1.8 h -14.7 l -3.8,16.5 h 14 z"
   id="path1649" />

						<path
   class="st1"
   d="m 987.5,261.6 h 35.2 l -3.9,16.8 h -35.2 l -2.7,11.4 h 38.9 l -4.2,18.5 h -60.9 l 17.7,-76.4 h 60.4 l -4.3,18.5 h -38.3 z"
   id="path1651" />

						<path
   class="st1"
   d="m 1073.5,231.8 c 10.8,0 19.4,2.9 25.8,8.5 6.4,5.7 9.6,13.5 9.6,23.4 0,12.3 -4.7,22.8 -14,31.5 -9.3,8.7 -21,13 -34.9,13 h -35 l 17.7,-76.4 z m -15,57.5 c 7.3,0 13.8,-2.3 19.4,-6.9 5.6,-4.6 8.4,-10.3 8.4,-17.2 0,-4.6 -1.5,-8.3 -4.4,-10.9 -2.9,-2.7 -7,-4 -12.3,-4 h -9.2 l -9,39 z"
   id="path1653" />

						<path
   class="st1"
   d="m 1188.7,241.7 c 7.2,7.8 10.1,17.2 8.7,28.3 -1.5,11.7 -6.4,21.3 -14.6,28.7 -8.2,7.4 -18.4,11.2 -30.6,11.2 -11.8,0.1 -21.3,-3.8 -28.4,-11.5 -7.2,-7.8 -10.1,-17.2 -8.6,-28.4 1.4,-11.2 6.5,-20.7 15.2,-28.4 8.7,-7.7 18.7,-11.6 30,-11.6 11.6,0 21.1,3.9 28.3,11.7 z m -20.7,42.8 c 4.1,-3.8 6.5,-8.6 7.2,-14.5 0.8,-5.7 -0.4,-10.5 -3.5,-14.4 -3.1,-3.9 -7.3,-5.8 -12.7,-5.8 -5.6,0 -10.5,1.9 -14.6,5.8 -4.1,3.8 -6.5,8.6 -7.3,14.4 -0.8,5.8 0.4,10.6 3.5,14.4 3.1,3.8 7.3,5.8 12.7,5.8 5.7,0 10.6,-1.9 14.7,-5.7 z"
   id="path1655" />

						<path
   class="st1"
   d="m 1272,271 c -4.1,5 -9.5,8.6 -16.4,10.7 l 15.2,26.4 h -24.3 l -13.3,-24.4 h -8.1 l -5.6,24.4 h -22 l 17.6,-76.4 h 37.6 c 7.9,0 14.1,2 18.6,5.9 4.5,3.9 6.8,9.3 6.8,16 0,6.6 -2.1,12.4 -6.1,17.4 z m -29.1,-4.5 c 3.8,0 6.9,-0.9 9.3,-2.8 2.4,-1.9 3.6,-4.2 3.6,-7 0,-2.1 -0.7,-3.8 -2.2,-5 -1.5,-1.2 -3.6,-1.8 -6.2,-1.8 h -14.7 l -3.8,16.5 h 14 z"
   id="path1657" />

					</g>

				</g>

			</g>

		</g>

	</g>

</g>
    <g
       id="g1679">
		<g
   id="g1677">
			<g
   id="g1675">
				<path
   class="st3"
   d="m 1774.7,90.3 h 97.6 c 8.9,0 14.7,7.2 13,16.2 l -19.3,97.6 c -1.8,8.9 -10.4,16.2 -19.4,16.2 H 1749 c -8.9,0 -14.7,-7.2 -13,-16.2 l 19.3,-97.6 c 1.8,-9 10.5,-16.2 19.4,-16.2 z"
   id="path1671" />

				<path
   class="st3"
   d="m 1747.5,220.2 h 100.6 c 8.1,0 16,-6.6 17.6,-14.7 l 19.9,-100.6 c 1.6,-8.1 -3.7,-14.7 -11.8,-14.7 h -100.6 c -8.1,0 -16,6.6 -17.6,14.7 l -19.9,100.6 c -1.6,8.1 3.7,14.7 11.8,14.7 z m -11.2,-14.7 19.9,-100.6 c 0.7,-3.8 2.9,-7.3 6.1,-10 3.2,-2.7 7,-4.1 10.8,-4.1 h 100.6 c 3.8,0 7,1.5 9.2,4.1 2.1,2.7 2.9,6.2 2.2,10 l -19.9,100.6 c -0.7,3.8 -2.9,7.3 -6.1,10 -3.2,2.7 -7,4.1 -10.8,4.1 h -100.6 c -3.8,0 -7,-1.5 -9.2,-4.1 -2.2,-2.6 -3,-6.2 -2.2,-10 z"
   id="path1673" />

			</g>

		</g>

	</g>
    <g
       id="g1689">
		<g
   id="g1687">
			<g
   id="g1685">
				<path
   class="st3"
   d="m 191.3,221.9 h 97.6 c 8.9,0 14.7,7.2 13,16.2 l -19.3,97.6 c -1.8,8.9 -10.4,16.2 -19.4,16.2 h -97.6 c -8.9,0 -14.7,-7.2 -13,-16.2 l 19.3,-97.6 c 1.8,-8.9 10.5,-16.2 19.4,-16.2 z"
   id="path1681" />

				<path
   class="st3"
   d="m 164.1,351.9 h 100.6 c 8.1,0 16,-6.6 17.6,-14.7 l 19.9,-100.6 c 1.6,-8.1 -3.7,-14.7 -11.8,-14.7 H 189.8 c -8.1,0 -16,6.6 -17.6,14.7 l -19.9,100.6 c -1.6,8.1 3.7,14.7 11.8,14.7 z m -11.2,-14.7 19.9,-100.6 c 0.7,-3.8 2.9,-7.3 6.1,-10 3.2,-2.7 7,-4.1 10.8,-4.1 h 100.6 c 3.8,0 7,1.5 9.2,4.1 2.1,2.7 2.9,6.2 2.2,10 l -19.9,100.6 c -0.7,3.8 -2.9,7.3 -6.1,10 -3.2,2.7 -7,4.1 -10.8,4.1 H 164.3 c -3.8,0 -7,-1.5 -9.2,-4.1 -2.2,-2.7 -3,-6.2 -2.2,-10 z"
   id="path1683" />

			</g>

		</g>

	</g>
    <g
       id="g1701">
		
			
		<g
   id="g1699">
			<g
   id="g1697">
				<g
   id="g1695">
					<path
   class="st1"
   d="m 1628.4,242.1 h 77.2 c 7.1,0 11.6,5.7 10.2,12.8 l -15.3,77.2 c -1.4,7.1 -8.3,12.8 -15.3,12.8 H 1608 c -7.1,0 -11.6,-5.7 -10.2,-12.8 l 15.3,-77.2 c 1.4,-7.1 8.2,-12.8 15.3,-12.8 z"
   id="path1693" />

				</g>

			</g>

		</g>

	</g>
    <g
       id="g1713">
		
			
		<g
   id="g1711">
			<g
   id="g1709">
				<g
   id="g1707">
					<path
   class="st1"
   d="m 93.5,98.4 h 77.2 c 7.1,0 11.6,5.7 10.2,12.8 l -15.3,77.2 c -1.4,7.1 -8.3,12.8 -15.3,12.8 H 73.1 c -7.1,0 -11.6,-5.7 -10.2,-12.8 l 15.3,-77.2 c 1.4,-7.1 8.3,-12.8 15.3,-12.8 z"
   id="path1705" />

				</g>

			</g>

		</g>

	</g>
    <g
       id="g1725">
		
			
		<g
   id="g1723">
			<g
   id="g1721">
				<g
   id="g1719">
					<path
   class="st1"
   d="m 1455.8,108.7 h 42.4 c 3.9,0 6.4,3.1 5.6,7 l -8.4,42.4 c -0.8,3.9 -4.5,7 -8.4,7 h -42.4 c -3.9,0 -6.4,-3.1 -5.6,-7 l 8.4,-42.4 c 0.8,-3.8 4.5,-7 8.4,-7 z"
   id="path1717" />

				</g>

			</g>

		</g>

	</g>
    <g
       id="g1737">
		
			
		<g
   id="g1735">
			<g
   id="g1733">
				<g
   id="g1731">
					<path
   class="st1"
   d="m 444.3,263.9 h 42.4 c 3.9,0 6.4,3.1 5.6,7 l -8.4,42.4 c -0.8,3.9 -4.5,7 -8.4,7 h -42.4 c -3.9,0 -6.4,-3.1 -5.6,-7 l 8.4,-42.4 c 0.7,-3.8 4.5,-7 8.4,-7 z"
   id="path1729" />

				</g>

			</g>

		</g>

	</g>
    <g
       id="g1751">
		<g
   id="g1749">
			
				
			<g
   id="g1747">
				<g
   id="g1745">
					<path
   class="st3"
   d="m 1579.7,117.2 h 61.2 c 5.6,0 9.2,4.5 8.1,10.1 l -12.1,61.2 c -1.1,5.6 -6.5,10.1 -12.1,10.1 h -61.2 c -5.6,0 -9.2,-4.5 -8.1,-10.1 l 12.1,-61.2 c 1.1,-5.5 6.5,-10.1 12.1,-10.1 z"
   id="path1741" />

					<path
   class="st3"
   d="m 1562.6,198.7 h 63.1 c 5.1,0 10,-4.1 11,-9.2 l 12.5,-63.1 c 1,-5.1 -2.3,-9.2 -7.4,-9.2 h -63.1 c -5.1,0 -10,4.1 -11,9.2 l -12.5,63.1 c -1,5.1 2.3,9.2 7.4,9.2 z m -7,-9.2 12.5,-63.1 c 0.5,-2.4 1.8,-4.6 3.8,-6.2 2,-1.7 4.4,-2.6 6.8,-2.6 h 63.1 c 2.4,0 4.4,0.9 5.7,2.6 1.3,1.7 1.8,3.9 1.3,6.2 l -12.5,63.1 c -0.5,2.4 -1.8,4.6 -3.8,6.2 -2,1.7 -4.4,2.6 -6.8,2.6 h -63.1 c -2.4,0 -4.4,-0.9 -5.7,-2.6 -1.3,-1.6 -1.8,-3.9 -1.3,-6.2 z"
   id="path1743" />

				</g>

			</g>

		</g>

	</g>
    <g
       id="g1765">
		<g
   id="g1763">
			
				
			<g
   id="g1761">
				<g
   id="g1759">
					<path
   class="st3"
   d="m 367,133.9 h 61.2 c 5.6,0 9.2,4.5 8.1,10.1 l -12.1,61.2 c -1.1,5.6 -6.5,10.1 -12.1,10.1 h -61.2 c -5.6,0 -9.2,-4.5 -8.1,-10.1 L 354.9,144 c 1.1,-5.6 6.5,-10.1 12.1,-10.1 z"
   id="path1755" />

					<path
   class="st3"
   d="m 350,215.3 h 63.1 c 5.1,0 10,-4.1 11,-9.2 L 436.6,143 c 1,-5.1 -2.3,-9.2 -7.4,-9.2 h -63.1 c -5.1,0 -10,4.1 -11,9.2 l -12.5,63.1 c -1,5.1 2.3,9.2 7.4,9.2 z m -7,-9.2 12.5,-63.1 c 0.5,-2.4 1.8,-4.6 3.8,-6.2 2,-1.7 4.4,-2.6 6.8,-2.6 h 63.1 c 2.4,0 4.4,0.9 5.7,2.6 1.3,1.7 1.8,3.9 1.3,6.2 l -12.5,63.1 c -0.5,2.4 -1.8,4.6 -3.8,6.2 -2,1.7 -4.4,2.6 -6.8,2.6 H 350 c -2.4,0 -4.4,-0.9 -5.7,-2.6 -1.3,-1.6 -1.8,-3.8 -1.3,-6.2 z"
   id="path1757" />

				</g>

			</g>

		</g>

	</g>
    <g
       id="g1775">
			<g
   id="g1773">
				<g
   id="g1771">
					<path
   class="st1"
   d="m 1792.4,315.1 h 30.8 c 2.8,0 4.6,2.3 4.1,5.1 l -6.1,30.8 c -0.6,2.8 -3.3,5.1 -6.1,5.1 h -30.8 c -2.8,0 -4.6,-2.3 -4.1,-5.1 l 6.1,-30.8 c 0.5,-2.8 3.3,-5.1 6.1,-5.1 z"
   id="path1769" />

				</g>

			</g>

		</g>
    <g
       id="g1789">
		
			
		<g
   id="g1787">
			<g
   id="g1785">
				<g
   id="g1783">
					<path
   class="st1"
   d="m 490.5,105.1 h 30.8 c 2.8,0 4.6,2.3 4.1,5.1 l -6.1,30.8 c -0.6,2.8 -3.3,5.1 -6.1,5.1 h -30.8 c -2.8,0 -4.6,-2.3 -4.1,-5.1 l 6.1,-30.8 c 0.6,-2.8 3.3,-5.1 6.1,-5.1 z"
   id="path1781" />

				</g>

			</g>

		</g>

	</g>
    <g
       id="g1801">
		<g
   id="g1799">
			<g
   id="g1797">
				<g
   id="g1795">
					<path
   class="st3"
   d="m 1440.3,282.8 h 40.6 c 3.7,0 6.1,3 5.4,6.7 l -8.1,40.6 c -0.7,3.7 -4.3,6.7 -8.1,6.7 h -40.6 c -3.7,0 -6.1,-3 -5.4,-6.7 l 8.1,-40.6 c 0.7,-3.7 4.3,-6.7 8.1,-6.7 z"
   id="path1791" />

					<path
   class="st3"
   d="m 1428.9,336.9 h 41.9 c 3.4,0 6.6,-2.7 7.3,-6.1 l 8.3,-41.9 c 0.7,-3.4 -1.5,-6.1 -4.9,-6.1 h -41.9 c -3.4,0 -6.6,2.7 -7.3,6.1 l -8.3,41.9 c -0.6,3.4 1.6,6.1 4.9,6.1 z m -4.6,-6.1 8.3,-41.9 c 0.3,-1.6 1.2,-3 2.5,-4.2 1.3,-1.1 2.9,-1.7 4.5,-1.7 h 41.9 c 1.6,0 2.9,0.6 3.8,1.7 0.9,1.1 1.2,2.6 0.9,4.2 l -8.3,41.9 c -0.3,1.6 -1.2,3 -2.5,4.2 -1.3,1.1 -2.9,1.7 -4.5,1.7 H 1429 c -1.6,0 -2.9,-0.6 -3.8,-1.7 -0.9,-1.1 -1.2,-2.6 -0.9,-4.2 z"
   id="path1793" />

				</g>

			</g>

		</g>

	</g>
    <g
       id="g1827">
	<g
   id="g1825">
		<g
   id="g1823">
			<g
   id="g1821">
				<path
   class="st3"
   d="m 1431.3,218.1 h 39.5 c 3.6,0 6,2.9 5.2,6.5 l -7.8,39.5 c -0.7,3.6 -4.2,6.5 -7.8,6.5 h -39.5 c -3.6,0 -6,-2.9 -5.2,-6.5 l 7.8,-39.5 c 0.7,-3.6 4.2,-6.5 7.8,-6.5 z"
   id="path1817" />

				<path
   class="st3"
   d="m 1420.3,270.6 h 40.7 c 3.3,0 6.5,-2.7 7.1,-5.9 l 8.1,-40.7 c 0.6,-3.3 -1.5,-5.9 -4.8,-5.9 h -40.7 c -3.3,0 -6.5,2.7 -7.1,5.9 l -8.1,40.7 c -0.6,3.3 1.5,5.9 4.8,5.9 z m -4.5,-5.9 8.1,-40.7 c 0.3,-1.5 1.2,-3 2.5,-4 1.3,-1.1 2.8,-1.7 4.4,-1.7 h 40.7 c 1.5,0 2.8,0.6 3.7,1.7 0.9,1.1 1.2,2.5 0.9,4 l -8.1,40.7 c -0.3,1.5 -1.2,3 -2.5,4 -1.3,1.1 -2.8,1.7 -4.4,1.7 h -40.7 c -1.5,0 -2.8,-0.6 -3.7,-1.7 -0.9,-1.1 -1.2,-2.5 -0.9,-4 z"
   id="path1819" />

			</g>

		</g>

	</g>

</g>
  </g>
  <g
     id="g1839">
	<g
   id="g1837">
		<g
   id="g1835">
			<g
   id="g1833">
				<path
   class="st3"
   d="m 38.6,203.3 h 42.9 c 3.9,0 6.5,3.2 5.7,7.1 l -8.5,42.9 c -0.8,3.9 -4.6,7.1 -8.5,7.1 H 27.3 c -3.9,0 -6.5,-3.2 -5.7,-7.1 l 8.5,-42.9 c 0.8,-4 4.6,-7.1 8.5,-7.1 z"
   id="path1829" />

				<path
   class="st3"
   d="m 26.6,260.3 h 44.2 c 3.6,0 7,-2.9 7.7,-6.4 l 8.8,-44.2 c 0.7,-3.6 -1.6,-6.4 -5.2,-6.4 H 37.9 c -3.6,0 -7,2.9 -7.7,6.4 l -8.8,44.2 c -0.6,3.5 1.7,6.4 5.2,6.4 z m -4.9,-6.4 8.8,-44.2 c 0.3,-1.7 1.3,-3.2 2.7,-4.4 1.4,-1.2 3.1,-1.8 4.7,-1.8 h 44.2 c 1.7,0 3.1,0.6 4,1.8 0.9,1.2 1.3,2.7 0.9,4.4 l -8.8,44.2 c -0.3,1.7 -1.3,3.2 -2.7,4.4 -1.4,1.2 -3.1,1.8 -4.7,1.8 H 26.7 c -1.7,0 -3.1,-0.6 -4,-1.8 -1,-1.2 -1.3,-2.8 -1,-4.4 z"
   id="path1831" />

			</g>

		</g>

	</g>

</g>
</g>
</g>

	<g
   id="g1363">
		<g
   id="g1351">
			<text
   transform="translate(766.3878,575.2695)"
   class="st1 st2 st3"
   id="text1349">RESTAURAR</text>

		</g>

		<g
   id="g1361">
			<g
   id="g1359">
				<g
   id="g1355">
					<path
   class="st1"
   d="m 811,498 c -15.6,0 -28.3,12.7 -28.3,28.3 0,15.6 12.7,28.3 28.3,28.3 15.6,0 28.3,-12.7 28.3,-28.3 C 839.2,510.7 826.5,498 811,498 Z m 0,51.4 c -12.8,0 -23.1,-10.4 -23.1,-23.1 0,-12.8 10.4,-23.1 23.1,-23.1 12.8,0 23.1,10.4 23.1,23.1 0,12.7 -10.4,23.1 -23.1,23.1 z m 0,0"
   id="path1353" />

				</g>

				<path
   class="st4"
   d="m 815.9,525.8 c 1.1,-3.2 0.4,-6.8 -2.1,-9.4 -2.5,-2.5 -6.2,-3.2 -9.4,-2.1 -0.6,0.2 -0.8,1 -0.3,1.4 l 3.4,3.4 c 1,1 1,2.6 0,3.7 v 0 c -1,1 -2.6,1 -3.7,0 l -3.4,-3.4 c -0.5,-0.5 -1.2,-0.3 -1.4,0.3 -1.2,3.2 -0.5,6.9 2.1,9.4 2.5,2.5 6.2,3.2 9.4,2.1 l 8.8,8.8 c 0.5,0.5 1.3,0.5 1.8,0 l 3.6,-3.6 c 0.5,-0.5 0.5,-1.3 0,-1.8 z m 0,0"
   id="path1357" />

			</g>

		</g>

	</g>

</g>
      <g
         id="g1369">
	<text
   transform="translate(917.0597,575.2695)"
   class="st1 st2 st3"
   id="text1367">POTENCIAR</text>

</g>
      <g
         id="g1383">
	
	<g
   id="g1477">
  <g
     id="g1375">
		<g
   id="g1373">
			<path
   class="st1"
   d="m 975.5,521.4 h -12.8 v -12.8 c 0,-0.8 -0.5,-1.5 -1.3,-1.7 -0.8,-0.2 -1.6,0.1 -2,0.7 l -14.6,21.9 c -0.4,0.6 -0.4,1.3 -0.1,1.9 0.3,0.6 0.9,1 1.6,1 h 12.8 v 12.8 c 0,0.8 0.5,1.5 1.3,1.7 0.2,0.1 0.4,0.1 0.5,0.1 0.6,0 1.2,-0.3 1.5,-0.8 L 977,524.3 c 0.4,-0.6 0.4,-1.3 0.1,-1.9 -0.3,-0.6 -0.9,-1 -1.6,-1 z m -12.8,17.7 v -8.6 c 0,-1 -0.8,-1.8 -1.8,-1.8 h -11.2 l 9.3,-14 v 8.6 c 0,1 0.8,1.8 1.8,1.8 H 972 Z m 0,0"
   id="path1371" />

		</g>

	</g>
  <g
     id="g1381">
		<g
   id="g1379">
			<path
   class="st1"
   d="m 961.6,497.8 c -15.7,0 -28.5,12.8 -28.5,28.5 0,15.7 12.8,28.5 28.5,28.5 15.7,0 28.5,-12.8 28.5,-28.5 0,-15.7 -12.8,-28.5 -28.5,-28.5 z m 0,51.8 c -12.9,0 -23.3,-10.5 -23.3,-23.3 0,-12.9 10.5,-23.3 23.3,-23.3 12.8,0 23.3,10.5 23.3,23.3 0,12.9 -10.4,23.3 -23.3,23.3 z m 0,0"
   id="path1377" />

		</g>

	</g>
</g>

</g>
      <path
         class="st5"
         d="M 1180.2,630.3 H 740.8 c -13.3,0 -24.2,-10.9 -24.2,-24.2 V 473.2 c 0,-13.3 10.9,-24.2 24.2,-24.2 h 439.4 c 13.3,0 24.2,10.9 24.2,24.2 v 132.9 c 0,13.3 -10.9,24.2 -24.2,24.2 z"
         id="path1385" />
    </g>
  </g>
  <style
     type="text/css"
     id="style1324">
	.st0{fill:url(#SVGID_1_);}
	.st1{fill:#53267E;}
	.st2{font-family:'GalanoGrotesque-HeavyItalic';}
	.st3{font-size:14.9474px;}
	.st4{fill-rule:evenodd;clip-rule:evenodd;fill:#53267E;}
	.st5{fill:none;stroke:#B3B3B3;stroke-width:2;stroke-miterlimit:10;}
</style>
  <style
     type="text/css"
     id="style1579">
	.st0{fill:#FFDB00;}
	.st1{fill:#53267E;}
	.st2{fill:#FFFFFF;}
	.st3{fill:#FDC901;}
</style>
</svg>
