<?xml version="1.0" encoding="UTF-8" standalone="no"?>
<!-- Created with Inkscape (http://www.inkscape.org/) -->

<svg
   width="14.975416mm"
   height="14.975416mm"
   viewBox="0 0 14.975416 14.975416"
   version="1.1"
   id="svg5"
   xmlns="http://www.w3.org/2000/svg"
   xmlns:svg="http://www.w3.org/2000/svg">
  <defs
     id="defs2" />
  <g
     id="layer1"
     transform="translate(-158.95634,-168.3973)">
    <g
       id="g1420"
       transform="matrix(0.26458333,0,0,0.26458333,-126.84657,36.105637)">
      <path
         class="st0"
         d="m 1109.5,617.2 h -1.1 c -32,0 -58,-26 -58,-58 v -35.4 c 0,-32 26,-58 58,-58 h 1.1 c 32,0 58,26 58,58 v 35.4 c 0,32 -26,58 -58,58 z"
         id="path1333" />
      <g
         id="g1365">
	<g
   id="g1347">
		<g
   id="g1337">
			<text
   transform="translate(1069.5161,572.2402)"
   class="st1 st2 st3"
   id="text1335">IMPULSAR</text>

		</g>

		<g
   id="g1345">
			<path
   class="st1"
   d="m 1108.5,500 c -15.6,0 -28.3,12.7 -28.3,28.3 0,15.6 12.7,28.3 28.3,28.3 15.6,0 28.3,-12.7 28.3,-28.3 0,-15.6 -12.7,-28.3 -28.3,-28.3 z m 0,51.4 c -12.8,0 -23.1,-10.4 -23.1,-23.1 0,-12.7 10.4,-23.1 23.1,-23.1 12.8,0 23.1,10.4 23.1,23.1 0,12.7 -10.3,23.1 -23.1,23.1 z m 0,0"
   id="path1339" />

			<path
   class="st1"
   d="m 1110.3,511.1 c -1,-1 -2.6,-1 -3.6,0 l -9.8,9.8 c -1,1 -1,2.6 0,3.6 1,1 2.6,1 3.6,0 l 5.4,-5.4 v 14.4 c 0,1.4 1.2,2.6 2.6,2.6 1.4,0 2.6,-1.2 2.6,-2.6 v -14.4 l 5.4,5.4 c 0.5,0.5 1.2,0.8 1.8,0.8 0.7,0 1.3,-0.3 1.8,-0.8 1,-1 1,-2.6 0,-3.6 z m 0,0"
   id="path1341" />

			<path
   class="st1"
   d="m 1113.7,541.2 h -10.3 c -1.4,0 -2.6,1.2 -2.6,2.6 0,1.4 1.2,2.6 2.6,2.6 h 10.3 c 1.4,0 2.6,-1.2 2.6,-2.6 -0.1,-1.5 -1.2,-2.6 -2.6,-2.6 z m 0,0"
   id="path1343" />

		</g>

	</g>

	<g
   id="g1363">
		<g
   id="g1351">
			<text
   transform="translate(766.3878,575.2695)"
   class="st1 st2 st3"
   id="text1349">RESTAURAR</text>

		</g>

		<g
   id="g1361">
			<g
   id="g1359">
				<g
   id="g1355">
					<path
   class="st1"
   d="m 811,498 c -15.6,0 -28.3,12.7 -28.3,28.3 0,15.6 12.7,28.3 28.3,28.3 15.6,0 28.3,-12.7 28.3,-28.3 C 839.2,510.7 826.5,498 811,498 Z m 0,51.4 c -12.8,0 -23.1,-10.4 -23.1,-23.1 0,-12.8 10.4,-23.1 23.1,-23.1 12.8,0 23.1,10.4 23.1,23.1 0,12.7 -10.4,23.1 -23.1,23.1 z m 0,0"
   id="path1353" />

				</g>

				<path
   class="st4"
   d="m 815.9,525.8 c 1.1,-3.2 0.4,-6.8 -2.1,-9.4 -2.5,-2.5 -6.2,-3.2 -9.4,-2.1 -0.6,0.2 -0.8,1 -0.3,1.4 l 3.4,3.4 c 1,1 1,2.6 0,3.7 v 0 c -1,1 -2.6,1 -3.7,0 l -3.4,-3.4 c -0.5,-0.5 -1.2,-0.3 -1.4,0.3 -1.2,3.2 -0.5,6.9 2.1,9.4 2.5,2.5 6.2,3.2 9.4,2.1 l 8.8,8.8 c 0.5,0.5 1.3,0.5 1.8,0 l 3.6,-3.6 c 0.5,-0.5 0.5,-1.3 0,-1.8 z m 0,0"
   id="path1357" />

			</g>

		</g>

	</g>

</g>
      <g
         id="g1369">
	<text
   transform="translate(917.0597,575.2695)"
   class="st1 st2 st3"
   id="text1367">POTENCIAR</text>

</g>
      <g
         id="g1383">
	
	<g
   id="g1477">
  <g
     id="g1375">
		<g
   id="g1373">
			<path
   class="st1"
   d="m 975.5,521.4 h -12.8 v -12.8 c 0,-0.8 -0.5,-1.5 -1.3,-1.7 -0.8,-0.2 -1.6,0.1 -2,0.7 l -14.6,21.9 c -0.4,0.6 -0.4,1.3 -0.1,1.9 0.3,0.6 0.9,1 1.6,1 h 12.8 v 12.8 c 0,0.8 0.5,1.5 1.3,1.7 0.2,0.1 0.4,0.1 0.5,0.1 0.6,0 1.2,-0.3 1.5,-0.8 L 977,524.3 c 0.4,-0.6 0.4,-1.3 0.1,-1.9 -0.3,-0.6 -0.9,-1 -1.6,-1 z m -12.8,17.7 v -8.6 c 0,-1 -0.8,-1.8 -1.8,-1.8 h -11.2 l 9.3,-14 v 8.6 c 0,1 0.8,1.8 1.8,1.8 H 972 Z m 0,0"
   id="path1371" />

		</g>

	</g>
  <g
     id="g1381">
		<g
   id="g1379">
			<path
   class="st1"
   d="m 961.6,497.8 c -15.7,0 -28.5,12.8 -28.5,28.5 0,15.7 12.8,28.5 28.5,28.5 15.7,0 28.5,-12.8 28.5,-28.5 0,-15.7 -12.8,-28.5 -28.5,-28.5 z m 0,51.8 c -12.9,0 -23.3,-10.5 -23.3,-23.3 0,-12.9 10.5,-23.3 23.3,-23.3 12.8,0 23.3,10.5 23.3,23.3 0,12.9 -10.4,23.3 -23.3,23.3 z m 0,0"
   id="path1377" />

		</g>

	</g>
</g>

</g>
      <path
         class="st5"
         d="M 1180.2,630.3 H 740.8 c -13.3,0 -24.2,-10.9 -24.2,-24.2 V 473.2 c 0,-13.3 10.9,-24.2 24.2,-24.2 h 439.4 c 13.3,0 24.2,10.9 24.2,24.2 v 132.9 c 0,13.3 -10.9,24.2 -24.2,24.2 z"
         id="path1385" />
    </g>
  </g>
  <style
     type="text/css"
     id="style1324">
	.st0{fill:url(#SVGID_1_);}
	.st1{fill:#53267E;}
	.st2{font-family:'GalanoGrotesque-HeavyItalic';}
	.st3{font-size:14.9474px;}
	.st4{fill-rule:evenodd;clip-rule:evenodd;fill:#53267E;}
	.st5{fill:none;stroke:#B3B3B3;stroke-width:2;stroke-miterlimit:10;}
</style>
</svg>
